<?xml version="1.0" standalone="no"?>
<!DOCTYPE svg PUBLIC "-//W3C//DTD SVG 20010904//EN"
 "http://www.w3.org/TR/2001/REC-SVG-20010904/DTD/svg10.dtd">
<svg version="1.0" xmlns="http://www.w3.org/2000/svg"
 width="512.000000pt" height="512.000000pt" viewBox="0 0 512.000000 512.000000"
 preserveAspectRatio="xMidYMid meet">

<g transform="translate(0.000000,512.000000) scale(0.100000,-0.100000)"
fill="#000000" stroke="none">
<path d="M4055 5100 c-24 -12 -150 -130 -315 -295 l-275 -275 530 -530 530
-530 288 288 c307 306 317 320 303 399 -7 34 -58 89 -454 485 -245 246 -461
455 -478 463 -43 20 -81 19 -129 -5z"/>
<path d="M1975 3040 l-1270 -1270 530 -530 530 -530 1272 1272 1273 1273 -527
527 c-291 291 -530 528 -533 528 -3 0 -577 -571 -1275 -1270z"/>
<path d="M427 1491 c-31 -33 -62 -72 -68 -88 -26 -69 -359 -1234 -359 -1258 0
-75 92 -154 164 -142 18 3 307 84 642 181 l609 177 70 69 70 70 -525 525
c-289 289 -530 525 -536 525 -6 0 -36 -27 -67 -59z"/>
</g>
</svg>
